<svg xmlns="http://www.w3.org/2000/svg" xml:space="preserve" width="82.973" height="80.872" version="1.0" viewBox="0 0 103.523 102.505"><g style="opacity:1" transform="translate(139.605 -8.49)scale(.93513)"><path d="M-45.75 92.692c20.04-33.321-4.232-87.363-48.614-81.873-40.1 4.958-40.745 47.165-5.405 57.191 30.583 8.685 6.318 28.084 7.027 41.001.712 12.916 26.587 17.602 46.992-16.32" style="fill:#1b1a1b"/><circle cx="33.728" cy="85.364" r="15.414" style="fill:#1b1a1b" transform="rotate(-14.67 -37.74 707.116)scale(1.12859)"/><path d="M-140.062 48.936c-6.258.606-10.839 6.164-10.233 12.422.607 6.262 6.165 10.847 12.424 10.24 6.257-.613 10.842-6.17 10.234-12.429-.608-6.253-6.166-10.84-12.425-10.233" style="fill:#1b1a1b"/><path d="M-44.993 91.34c20.041-33.321-4.231-87.363-48.613-81.873-40.1 4.957-40.746 47.166-5.406 57.193 30.583 8.684 6.318 28.083 7.027 41.002.713 12.914 26.587 17.6 46.992-16.322" style="fill:#bfbfbf"/><path d="M-86.842 112.76c-1.215-1.97.642-4.158 2.551-3.992 3.04.266 9.655-.035 14.876-2.995 13.043-7.393 33.114-42.97 23.02-65.408-4.52-10.044-6.72-12.92-11.375-17.833-.95-1.002-.405-.948.238-.609 2.517 1.321 6.94 6.437 11.477 14.765 7.664 14.07 7.267 30.795 4.416 41.287-1.986 7.3-8.825 23.811-18.842 30.95-10.039 7.157-21.785 11.26-26.361 3.835m-9.088-46.169c-6.833-2.028-15.642-4.853-20.738-11.517-3.756-4.914-5.662-10.277-6.15-13.318-.173-1.085-.32-1.99-.007-2.24.144-.117 2.804 5.896 6.781 10.936s9.533 7.988 14.163 9.06c4.118.951 12.647 3.043 15.533 5.502 2.967 2.527 3.215 7.987 2.216 8.603-1.007.62-3.048-4.43-11.799-7.026z" style="fill:#000"/><path d="M-81.84 113.723c-.133 1.564 1.664 1.87 4.082 1.508 3.1-.464 5.72-.813 9.287-2.601 4.835-2.423 9.728-5.89 13.312-10.565 10.692-13.95 14.478-30.455 13.895-32.829-.195 1.96-2.776 12.253-8.68 21.532-7.58 11.918-13.078 18.267-25.757 21.344-3.529.858-5.967-.448-6.14 1.611m-28.121-54.243c1.444 1.224 4.403 2.856 10.225 4.766 7.031 2.305 10.455 4.304 11.888 5.262 1.52 1.018 2.483 3.288 2.578 1.272.1-2.019-1.145-3.755-3.921-4.675-1.878-.624-5.038-2.109-8.067-2.707a88 88 0 0 1-7.827-1.978c-1.489-.457-3.005-1.258-4.876-1.94" style="fill:#fff"/><circle cx="34.681" cy="84.375" r="15.414" style="fill:#bfbfbf" transform="rotate(-14.67 -37.74 707.116)scale(1.12859)"/><path d="M-128.684 108.38c13.531 12.538 33.898-4.685 24.93-19.897-1.008-1.708-2.315-3.009-1.885-1.7 2.866 8.747.218 15.666-4.724 19.232-4.846 3.496-11.505 4.081-16.837 1.317-1.566-.812-2.215.37-1.484 1.047" style="fill:#000"/><path d="M-118.067 110.955c1.723-.363 11.743-2.958 14.096-11.199.734-2.57.865-2.053.658-.66-1.057 7.105-7.774 12.347-13.49 12.542-1.16.119-2.682-.387-1.264-.683" style="fill:#fff"/><path d="M-139.304 47.584c-6.258.605-10.839 6.164-10.233 12.422.606 6.261 6.165 10.847 12.423 10.24 6.258-.613 10.842-6.172 10.233-12.43-.607-6.254-6.164-10.838-12.423-10.232" style="fill:#bfbfbf"/><path d="M-144.469 67.571c.07.805 1.171 1.838 2.902 2.312 1.487.408 5.32 1.45 10.243-1.658 4.924-3.108 5.492-11.42 3.254-13.865-.693-1.239-1.594-2.14-.877-.164 1.81 4.99-1.708 9.659-4.742 11.82-3.033 2.162-6.88 1.139-8.451.66-1.571-.48-2.4.064-2.329.895" style="fill:#000"/><path d="M-138.115 68.688c.452-.406 2.736-.24 4.799-1.35 2.061-1.109 4.512-3.54 4.95-6.994.257-2.029.334-1.52.437-.415-.32 5.743-5.602 8.916-8.622 9.334-.815.113-2.25.044-1.564-.575" style="fill:#fff"/><path d="M-47.767 69.694C-39.235 45.1-57.09 7.958-93.213 12.426c-32.639 4.035-33.165 38.389-4.4 46.55 32.582 4.933 12.962 29.512 10.179 41.906-2.495 11.111 26.331 12.94 39.667-31.188" style="fill:#999"/><path d="M-70.093 88.904c-8.827-1.092-21.53 18.837-9.552 16.503 11.974-2.333-11.977 2.334 0 0 5.756-.854 10.525-2.886 14.794-7.76 5.567-6.352 13.883-20.074 16.288-28.94 2.025-7.475 1.007-19.056-1.081-8.174-2.142 11.167-11.623 29.464-20.45 28.371" style="fill:#f3f3f3"/><path d="M-129.385 104.845c2.043.034 3.28.322 5.349 1.774 4.09 1.7 11.61.623 15.082-3.948s3.586-10.87 2.263-14.675c-3.236-9.314-16.985-9.15-23.127-1.417-6.644 8.636-1.611 18.232.433 18.266m-18.251-43.161c.408 1.282 1.448 3.154 3.646 3.466 2.935.417 3.535 1.743 7 1.055 3.466-.688 6.093-3.528 7.144-6.67 1.204-4.347-.598-6.591-3.31-8.595-2.712-2.003-8.678-1.788-12.238 1.458-2.53 2.305-3.233 6.163-2.242 9.286" style="fill:#999"/><path d="M-136.11 64.558c2.663-.697 6.185-4.325 4.436-7.096-2.157-3.413-8.167-.491-8.37 3.309-.204 3.802 1.112 4.526 3.934 3.787m19.995 40.951c2.272-.595 9.232-3.427 7.925-13.546-.662-5.126-3.457 6.361-8.634 8.08-7.843 2.602-6.962 7.474.709 5.466" style="fill:#f3f3f3"/></g></svg>